<svg width="461" height="460" xmlns="http://www.w3.org/2000/svg" xmlns:xlink="http://www.w3.org/1999/xlink" xml:space="preserve" overflow="hidden"><g transform="translate(-82 -45)"><path d="M304.415 236.037 273.365 267.087 242.267 236.037 259.612 236.037C253.745 224.608 241.984 217.415 229.137 217.398 220.849 217.407 212.852 220.459 206.665 225.975L175.087 225.975C189.154 196.094 224.781 183.274 254.662 197.341 270.609 204.848 282.432 219.007 286.973 236.037Z" transform="matrix(1.00217 0 0 1 82 45)"/><path d="M154.052 267.087 185.15 236.037 216.2 267.087 198.71 267.087C204.562 278.509 216.304 285.703 229.137 285.727 237.442 285.725 245.456 282.673 251.658 277.15L283.379 277.15C269.266 307.068 233.572 319.881 203.654 305.768 187.722 298.252 175.906 284.104 171.35 267.087Z" transform="matrix(1.00217 0 0 1 82 45)"/><path d="M377.248 364.167C418.625 363.187 451.374 328.85 450.396 287.473 449.531 250.967 422.482 220.398 386.352 215.098 382.534 191.665 369.662 170.671 350.51 156.64 330.689 142.593 305.933 137.388 282.133 142.265 258.719 106.114 215.053 88.6592 173.171 98.7083 132.351 109.221 101.849 143.238 95.8333 184.958 68.6397 185.689 43.2814 198.845 27.025 220.656 7.76322 247.412 4.25537 282.418 17.825 312.465 31.6573 342.081 60.6141 361.729 93.2458 363.64ZM94.5396 333.883C72.8578 332.518 53.636 319.465 44.3708 299.815 35.3804 279.786 37.6972 256.491 50.4562 238.625 63.5011 221.076 85.2073 212.217 106.806 215.625L123.817 218.452 123.817 199.669C123.983 165.733 147.046 136.19 179.927 127.794 212.921 119.839 247.033 135.742 262.152 166.127L267.95 177.675 279.977 173.41C297.972 167.052 317.935 169.841 333.5 180.885 348.975 192.222 358.137 210.242 358.177 229.425L358.177 244.375 377.727 244.375C402.559 245.307 421.934 266.193 421.001 291.025 420.111 314.733 400.965 333.677 377.248 334.315Z" transform="matrix(1.00217 0 0 1 82 45)"/></g></svg>